<?xml version="1.0" encoding="utf-8"?>
<!-- Generator: Adobe Illustrator 19.1.1, SVG Export Plug-In . SVG Version: 6.00 Build 0)  -->
<svg version="1.1" id="Calque_1" xmlns="http://www.w3.org/2000/svg" xmlns:xlink="http://www.w3.org/1999/xlink" x="0px" y="0px"
	 viewBox="0 0 51.1 66" style="enable-background:new 0 0 51.1 66;" xml:space="preserve">
<g>
	<g>
		<path style="fill:#9D9C8D;" d="M20.1,23.4c0,0-5.5-15.3-7.3-20.8c-4.2,1.1-8.3,9.7-4.5,17c1.8,3.5,7.1,12.2,7.1,12.2L20.1,23.4z"
			/>
		<path style="fill:#BFB8A7;" d="M31,23.4c0,0,5.5-15.3,7.3-20.8c4.2,1.1,8.3,9.7,4.5,17C41,23,35.7,31.8,35.7,31.8L31,23.4z"/>
		<polygon style="fill:#9D9C8D;" points="12.2,30 10.3,28.7 9.1,25.3 8.2,25.3 8.6,29.7 14.2,33 		"/>
		<polygon style="fill:#BFB8A7;" points="40.9,28.7 38.4,29.8 36.4,32.8 42.6,29.7 43.1,25.3 42.2,25.3 		"/>
		<polygon style="fill:#BFB8A7;" points="25.6,39 20.1,37.6 19.6,38.8 25.6,49 25.6,49 25.6,49 31.6,38.8 31.1,37.6 		"/>
		<path style="fill:#FCC433;" d="M29.7,23.2c-1.4-2.7-4.1-6.6-4.1-6.6c0,0-2.7,3.9-4.1,6.6l4.1,6.5L29.7,23.2z"/>
		<path style="fill:#FCC433;" d="M34.2,32.1c-1.1-1.7-2.5-4-3.8-6.8l-4.8,8.2l-4.8-8.2c-1.4,2.8-2.8,5.1-3.8,6.8l-3.7,3l-0.5,7h0.9
			l1.3-5.9l1.7-0.7l8.9,1.2l8.9-1.2l1.7,0.7l1.3,5.9h0.9l-0.5-7L34.2,32.1z"/>
	</g>
	<polygon style="fill:#F8B001;" points="25.6,36.4 25.6,34.3 20.8,26 17,32.1 13.3,35.1 12.8,42.1 13.5,41.9 14.5,35.9 16.9,34.8 	
		"/>
	<path style="fill:#FFE495;" d="M25.6,16.6c0,0,3.2,4.7,4.1,6.6c-0.8-1.1-4.1-4.6-4.1-4.6V16.6z"/>
	<polygon style="fill:#BFB8A7;" points="12.5,3.5 19.4,23.2 17.7,26.4 18.6,22.9 12.1,4.5 	"/>
	<polygon style="fill:#E0E7DE;" points="38.7,3.5 31.9,23.2 32.7,22.9 39.1,4.5 	"/>
	<polygon style="fill:#9D9C8D;" points="25.6,39.5 25.6,48.1 20.1,38.9 20.5,38 	"/>
	<polygon style="fill:#F8B001;" points="25.6,29.8 25.6,18.6 21.5,23.2 	"/>
	<polygon style="fill:#E0E7DE;" points="25.6,39 31.1,37.6 26.1,39.6 25.6,48.1 	"/>
	<polygon style="fill:#FFF8C0;" points="26.8,18.6 26.8,19.6 27.5,20.5 27.5,19.8 	"/>
	<path style="fill:#FFDC90;" d="M30.4,25.3c-0.7,1.1-4.8,8.2-4.8,8.2v0.8l4.7-7.8l3.9,5.5C34.2,32.1,31.2,27.3,30.4,25.3z"/>
	<polygon style="fill:#FFDC90;" points="38.4,42.1 37.7,41.9 36.6,36 34.5,35 25.6,36.4 25.6,36.7 34.5,35.5 36.2,36.2 37.5,42.1 	
		"/>
	<polygon style="fill:#FFDC90;" points="26.1,33.6 25.6,36.7 25.6,34.3 	"/>
	<path style="fill:#E0E7DE;" d="M38.7,3.5c0,0,2.8,0.7,4.4,4.8c-2.5-3.6-4-3.9-4-3.9L38.7,3.5z"/>
	<path style="fill:#BFB8A7;" d="M25.6,52.3l-8.9-14.9l-0.8,0.4L15,43.3h-3.4l-0.1-8.3l1-1.3l-5.1-2.7l-0.8-7.6l1.8,0
		c-0.3-0.6-0.9-2.1-1.9-4.2c-1.7-3.8-1.7-8.2,0.1-12.1c1.5-3.4,4.2-6.1,6.7-6.9l0.2-0.1l0.1,0.2c0.4,1.1,6.1,17.2,7.2,20.2l4.8-6.6
		v0.8l-4.9,6.9l-0.2-0.5c-0.1-0.2-6.3-18-7.2-20.4c-2.3,0.8-4.8,3.5-6.2,6.6C5.3,11.2,5.3,15.3,7,19c1.3,2.9,2,4.6,2,4.6L9.2,24
		l-2,0l0.7,6.8l5.4,2.8l-1.3,1.6l0.1,7.6h2.5l0.9-5.4l1.4-0.7l0.1,0.2l8.6,14.3V52.3z"/>
	<path style="fill:#E0E7DE;" d="M25.6,52.3v-1.2l8.6-14.5l1.4,0.7l0.9,5.4H39l0.1-7.6l-1.3-1.6l5.4-2.8l0.7-6.8l-2,0l0.1-0.3
		c0,0,0.7-1.7,2-4.6c1.7-3.7,1.7-7.9-0.1-11.7c-1.4-3.1-3.9-5.8-6.2-6.6c-0.9,2.5-7.2,20.3-7.2,20.4l-0.2,0.5l-4.8-6.8v-0.8l4.6,6.5
		c1.1-3,6.7-19.1,7.2-20.2L37.5,0l0.2,0.1c2.6,0.8,5.2,3.5,6.7,6.9c1.8,4,1.8,8.3,0.1,12.1c-1,2.1-1.6,3.6-1.9,4.2l1.8,0L43.7,31
		l-5.1,2.7l1,1.3l-0.1,8.3h-3.4l-0.9-5.5l-0.8-0.4L25.6,52.3z"/>
	<polygon style="fill:#FFF8C0;" points="28.1,29.5 28.1,30.1 27.1,31.8 27,31.3 	"/>
</g>
<g>
	<path style="fill:#F8B001;" d="M21.9,54.4c-1.2,1.2-3.5,7.5-3.9,10.8v0.1h0.8c0.2-1,0.4-2,0.6-2.9h4.8c0.2,0.9,0.4,1.9,0.6,2.9h0.8
		v-0.1C25.4,61.9,23.1,55.6,21.9,54.4z M19.7,61.7c0.6-2.1,1.3-3.9,2.2-5.9c1,2,1.7,3.8,2.2,5.9H19.7z"/>
	<g>
		<path style="fill:#BFB8A7;" d="M8.9,55.1h0.7v10.2H8.9V55.1z"/>
		<path style="fill:#BFB8A7;" d="M14.5,55.7h-3.4v-0.6h7.3v0.6h-3.2v9.5h-0.7V55.7z"/>
		<path style="fill:#BFB8A7;" d="M27.4,62.9v-7.8h0.7V63c0,1.1,0.5,1.6,1.6,1.6h2.9v0.6h-2.8C28.2,65.2,27.4,64.5,27.4,62.9z"/>
		<path style="fill:#BFB8A7;" d="M34.1,55.1h0.7v10.2h-0.7V55.1z"/>
		<path style="fill:#BFB8A7;" d="M39.6,55.7h-3.4v-0.6h7.3v0.6h-3.2v9.5h-0.7V55.7z"/>
		<path style="fill:#BFB8A7;" d="M47.2,61L44,55.2v-0.1h0.7l2.9,5.2l2.8-5.2h0.7v0.1L47.9,61v4.2h-0.7V61z"/>
	</g>
	<path style="fill:#BFB8A7;" d="M6.5,55.1c-0.7,3.7-1.4,6.5-2.9,9.5c-1.5-3-2.2-5.8-2.9-9.5H0v0.1c0.4,3.2,2.4,9.5,3.6,10.8
		c1.2-1.2,3.2-7.5,3.6-10.8v-0.1H6.5z"/>
</g>
</svg>
